<svg width="15" height="16" viewBox="0 0 15 16" fill="none" xmlns="http://www.w3.org/2000/svg">
<path fill-rule="evenodd" clip-rule="evenodd" d="M13.6902 12.0446C13.2685 11.5285 12.5836 10.7807 11.9972 10.7099C11.6405 10.6668 11.2305 10.954 10.8265 11.225C10.7477 11.2633 10.1387 11.6157 10.0648 11.6367C9.67452 11.7449 8.84182 11.7765 8.33825 11.3303C7.85341 10.8995 7.08673 10.1019 6.46787 9.37132C5.8766 8.61873 5.25675 7.71391 4.93944 7.15857C4.60833 6.58312 4.8468 5.82192 5.05178 5.4868C5.08923 5.42648 5.54253 4.97359 5.64403 4.86826L5.65882 4.8855C6.03427 4.5791 6.42747 4.26792 6.47181 3.93089C6.54473 3.3698 5.95445 2.55306 5.53268 2.03602C5.11091 1.51802 4.45755 0.611283 3.56769 0.739586C3.23264 0.78746 2.9439 0.901401 2.65911 1.06513L2.65122 1.05651C2.63525 1.06807 2.61948 1.07988 2.60392 1.09194L2.57928 1.10439L2.58224 1.10822C2.41866 1.23078 1.95155 1.56973 1.89834 1.61569C1.32087 2.11454 0.451698 3.28937 1.12378 5.40254C1.62241 6.97282 2.68571 8.81693 4.13432 10.6821L4.12644 10.6888C4.19739 10.7788 4.27032 10.8602 4.34423 10.9473C4.41321 11.0364 4.4812 11.1245 4.55216 11.2126L4.56201 11.2059C6.09931 13.005 7.71151 14.4431 9.18278 15.2915C11.1635 16.4328 12.5717 15.9186 13.2221 15.5098C13.2832 15.4705 13.7484 15.1191 13.906 15.0032L13.91 15.0071C13.9159 15.0013 13.9198 14.9937 13.9277 14.9879C13.9419 14.9775 13.9561 14.967 13.9701 14.9563L13.9642 14.9487C14.2027 14.7246 14.3938 14.4852 14.5259 14.1836C14.8718 13.3899 14.112 12.5626 13.6902 12.0446Z" fill="#54A630"/>
</svg>
