<svg width="16" height="15" viewBox="0 0 16 15" fill="none" xmlns="http://www.w3.org/2000/svg">
<path fill-rule="evenodd" clip-rule="evenodd" d="M15.8833 7.28664C15.8833 11.0401 12.467 14.0829 8.25341 14.0829C7.49772 14.084 6.74516 13.9841 6.01499 13.7858C5.45801 14.0732 4.17905 14.6247 2.02743 14.9839C1.83668 15.015 1.69172 14.813 1.76706 14.6325C2.10468 13.8208 2.40988 12.7392 2.50144 11.7528C1.33311 10.5586 0.623535 8.99542 0.623535 7.28664C0.623535 3.53315 4.03981 0.490356 8.25341 0.490356C12.467 0.490356 15.8833 3.53315 15.8833 7.28664ZM5.3922 7.28664C5.3922 7.54414 5.29172 7.79109 5.11286 7.97317C4.934 8.15525 4.69142 8.25754 4.43847 8.25754C4.18552 8.25754 3.94294 8.15525 3.76408 7.97317C3.58522 7.79109 3.48474 7.54414 3.48474 7.28664C3.48474 7.02914 3.58522 6.78219 3.76408 6.60011C3.94294 6.41804 4.18552 6.31574 4.43847 6.31574C4.69142 6.31574 4.934 6.41804 5.11286 6.60011C5.29172 6.78219 5.3922 7.02914 5.3922 7.28664ZM9.20714 7.28664C9.20714 7.54414 9.10666 7.79109 8.9278 7.97317C8.74894 8.15525 8.50635 8.25754 8.25341 8.25754C8.00046 8.25754 7.75787 8.15525 7.57901 7.97317C7.40015 7.79109 7.29967 7.54414 7.29967 7.28664C7.29967 7.02914 7.40015 6.78219 7.57901 6.60011C7.75787 6.41804 8.00046 6.31574 8.25341 6.31574C8.50635 6.31574 8.74894 6.41804 8.9278 6.60011C9.10666 6.78219 9.20714 7.02914 9.20714 7.28664ZM12.0683 8.25754C12.3213 8.25754 12.5639 8.15525 12.7427 7.97317C12.9216 7.79109 13.0221 7.54414 13.0221 7.28664C13.0221 7.02914 12.9216 6.78219 12.7427 6.60011C12.5639 6.41804 12.3213 6.31574 12.0683 6.31574C11.8154 6.31574 11.5728 6.41804 11.3939 6.60011C11.2151 6.78219 11.1146 7.02914 11.1146 7.28664C11.1146 7.54414 11.2151 7.79109 11.3939 7.97317C11.5728 8.15525 11.8154 8.25754 12.0683 8.25754Z" fill="#54A630"/>
</svg>
