<svg width="17" height="11" viewBox="0 0 17 11" fill="none" xmlns="http://www.w3.org/2000/svg">
<path d="M15.206 9.79963C15.0577 9.79952 14.911 9.76827 14.7755 9.7079C14.744 9.6939 14.7139 9.67682 14.6858 9.6569L11.9468 7.7289C11.8079 7.63112 11.6945 7.50137 11.6162 7.35061C11.538 7.19984 11.4971 7.03246 11.4971 6.86259V4.2332C11.4971 4.06333 11.538 3.89595 11.6162 3.74519C11.6945 3.59442 11.8079 3.46468 11.9468 3.36689L14.6858 1.43889C14.7139 1.41897 14.744 1.40189 14.7755 1.3879C14.9369 1.31617 15.1136 1.28589 15.2896 1.29981C15.4656 1.31373 15.6354 1.37142 15.7834 1.46762C15.9315 1.56383 16.0532 1.6955 16.1374 1.85068C16.2216 2.00586 16.2657 2.17963 16.2657 2.3562V8.73959C16.2657 9.02064 16.1541 9.29018 15.9554 9.48892C15.7566 9.68765 15.4871 9.7993 15.206 9.7993V9.79963Z" fill="#54A630"/>
<path d="M8.71529 10.3165H2.62199C2.02494 10.3159 1.45253 10.0785 1.03035 9.65627C0.608178 9.2341 0.370731 8.66168 0.370117 8.06464V3.03105C0.370731 2.434 0.608178 1.86159 1.03035 1.43941C1.45253 1.01724 2.02494 0.779788 2.62199 0.779175H8.73118C9.32399 0.779876 9.89231 1.01568 10.3115 1.43485C10.7307 1.85403 10.9665 2.42235 10.9672 3.01515V8.06464C10.9665 8.66168 10.7291 9.2341 10.3069 9.65627C9.88475 10.0785 9.31233 10.3159 8.71529 10.3165Z" fill="#54A630"/>
</svg>
